<svg width="30" height="30" viewBox="0 0 30 30" fill="none" xmlns="http://www.w3.org/2000/svg">
<g clip-path="url(#clip0_59_19)">
<path d="M21.6168 2.75803L23.0975 0.395552C23.196 0.239929 23.1618 0.11993 22.9946 0.0355555C22.8125 -0.0356938 22.6732 -6.91414e-05 22.5768 0.144304L21.0768 2.52553C19.7555 2.01909 18.3279 1.7598 16.8854 1.76429C15.4112 1.76429 14.0141 2.01741 12.6941 2.52178L11.1941 0.140555C11.0956 -6.91265e-05 10.9584 -0.0338188 10.7763 0.0374305C10.6091 0.12368 10.5749 0.243679 10.6713 0.399302L12.152 2.7599C10.6967 3.38659 9.45903 4.342 8.56703 5.52738C7.68924 6.6769 7.22433 8.02984 7.23206 9.41234H26.5174C26.5174 8.0061 26.0717 6.71237 25.1824 5.52738C24.2945 4.34522 23.0641 3.39027 21.6168 2.7599V2.75803ZM13.0605 6.193C12.986 6.25944 12.897 6.31198 12.7986 6.34743C12.7003 6.38288 12.5947 6.40051 12.4884 6.39924C12.3832 6.40139 12.2786 6.38414 12.1815 6.3486C12.0844 6.31307 11.997 6.26005 11.9248 6.193C11.8507 6.12809 11.7923 6.05084 11.7529 5.96582C11.7135 5.8808 11.694 5.78973 11.6955 5.698C11.6942 5.60602 11.7138 5.51472 11.7531 5.42941C11.7925 5.34411 11.8509 5.26651 11.9248 5.20113C11.997 5.13417 12.0845 5.08122 12.1816 5.04569C12.2787 5.01016 12.3832 4.99285 12.4884 4.99488C12.7091 4.99488 12.902 5.06426 13.0605 5.20113C13.1374 5.26506 13.1984 5.34218 13.2397 5.42768C13.281 5.51317 13.3017 5.60519 13.3005 5.698C13.3014 5.79049 13.2806 5.88216 13.2393 5.96731C13.198 6.05246 13.1371 6.12928 13.0605 6.193ZM21.8482 6.193C21.7762 6.25972 21.6891 6.31254 21.5924 6.34805C21.4957 6.38357 21.3916 6.40101 21.2868 6.39924C21.1801 6.40087 21.0741 6.38342 20.9753 6.34795C20.8766 6.31249 20.7872 6.25976 20.7125 6.193C20.6357 6.12942 20.5747 6.05263 20.5334 5.96744C20.4921 5.88226 20.4714 5.79053 20.4725 5.698C20.4725 5.50488 20.5518 5.33988 20.7125 5.20113C20.7872 5.13446 20.8767 5.08179 20.9754 5.04633C21.0741 5.01087 21.1801 4.99337 21.2868 4.99488C21.5096 4.99488 21.6939 5.06426 21.8482 5.20113C21.9225 5.26632 21.981 5.34389 22.0204 5.42924C22.0598 5.51458 22.0792 5.60597 22.0775 5.698C22.0775 5.88925 22.0025 6.05425 21.8482 6.193ZM7.23206 22.0685C7.23206 22.6197 7.45491 23.0885 7.89847 23.4747C8.34418 23.8572 8.88417 24.0503 9.52701 24.0503H11.1513L11.1727 28.1415C11.1727 28.659 11.3806 29.0978 11.7984 29.4597C11.9936 29.6338 12.2272 29.7715 12.4851 29.8643C12.7429 29.9571 13.0196 30.0032 13.2984 29.9996C13.5805 30.0044 13.8609 29.959 14.1224 29.8662C14.3839 29.7734 14.6211 29.6351 14.8198 29.4597C15.0223 29.2896 15.1824 29.0847 15.2901 28.8578C15.3978 28.631 15.4507 28.3871 15.4455 28.1415V24.0503H18.3233V28.1415C18.3233 28.659 18.5311 29.0978 18.949 29.4597C19.1475 29.6352 19.3848 29.7735 19.6463 29.8663C19.9078 29.9592 20.1882 30.0045 20.4704 29.9996C20.7525 30.0044 21.0329 29.959 21.2944 29.8662C21.5559 29.7734 21.7932 29.6351 21.9918 29.4597C22.1943 29.2896 22.3544 29.0847 22.4621 28.8578C22.5698 28.631 22.6227 28.3871 22.6175 28.1415V24.0503H24.246C24.8696 24.0503 25.4031 23.8572 25.851 23.4728C26.2946 23.0885 26.5174 22.6197 26.5174 22.0666V10.0592H7.23206V22.0666V22.0685ZM29.7209 9.71796C29.4433 9.71381 29.1675 9.75772 28.9093 9.84717C28.6512 9.93663 28.4158 10.0699 28.2167 10.2392C28.0144 10.4024 27.8539 10.6012 27.7456 10.8226C27.6374 11.044 27.584 11.2828 27.5888 11.5236V19.1416C27.5888 19.6497 27.7988 20.081 28.2167 20.4354C28.4138 20.6078 28.6485 20.7439 28.907 20.8354C29.1654 20.9268 29.4422 20.9719 29.7209 20.9679C30.3209 20.9679 30.8288 20.7897 31.2466 20.4354C31.4488 20.2701 31.6091 20.0695 31.7172 19.8467C31.8253 19.6239 31.8789 19.3837 31.8745 19.1416V11.5236C31.8793 11.2828 31.8258 11.044 31.7176 10.8226C31.6094 10.6012 31.4489 10.4024 31.2466 10.2392C31.0441 10.0686 30.8051 9.93474 30.5432 9.84528C30.2814 9.75583 30.0019 9.71256 29.7209 9.71796ZM2.50286 10.2486C2.70376 10.0754 2.94228 9.93929 3.20432 9.84815C3.46637 9.75702 3.74662 9.71275 4.02854 9.71796C4.61353 9.71796 5.11495 9.89421 5.5328 10.2486C5.73342 10.4109 5.89293 10.6083 6.00107 10.8279C6.10921 11.0475 6.16357 11.2845 6.16065 11.5236V19.1416C6.16543 19.3829 6.11306 19.6224 6.00685 19.845C5.90064 20.0677 5.74288 20.2687 5.54352 20.4354C5.34514 20.609 5.10865 20.7457 4.84828 20.8372C4.58791 20.9287 4.30907 20.9732 4.02854 20.9679C3.74649 20.9727 3.46618 20.9281 3.20414 20.8367C2.94211 20.7452 2.70366 20.6087 2.50286 20.4354C2.30071 20.2701 2.1404 20.0695 2.03226 19.8467C1.92412 19.6239 1.87055 19.3837 1.87501 19.1416V11.5236C1.87501 11.0286 2.08501 10.603 2.50286 10.2486Z" fill="#FF6542"/>
</g>
<defs>
<clipPath id="clip0_59_19">
<rect width="30" height="30" fill="white"/>
</clipPath>
</defs>
</svg>
