<svg width="20" height="20" viewBox="0 0 20 20" fill="none" xmlns="http://www.w3.org/2000/svg">
<g clip-path="url(#clip0_92_27)">
<path d="M0.0625 5.09167C0.188523 4.3554 0.498319 3.69802 0.941152 3.22718C1.38398 2.75634 1.93361 2.49995 2.5 2.5H17.5C18.0664 2.49995 18.616 2.75634 19.0588 3.22718C19.5017 3.69802 19.8115 4.3554 19.9375 5.09167L10 13.19L0.0625 5.09167ZM0 6.995V18.835L7.25375 12.905L0 6.995ZM8.45125 13.8833L0.23875 20.595C0.441658 21.1655 0.761908 21.6474 1.16223 21.9846C1.56255 22.3219 2.02647 22.5006 2.5 22.5H17.5C17.9735 22.5001 18.4372 22.321 18.8373 21.9835C19.2374 21.6459 19.5574 21.1639 19.76 20.5933L11.5475 13.8817L10 15.1433L8.45125 13.8833ZM12.7462 12.9067L20 18.835V6.995L12.7462 12.905V12.9067Z" fill="white"/>
</g>
<defs>
<clipPath id="clip0_92_27">
<rect width="20" height="20" fill="white"/>
</clipPath>
</defs>
</svg>
