<svg width="31" height="31" viewBox="0 0 31 31" fill="none" xmlns="http://www.w3.org/2000/svg">
<g clip-path="url(#clip0_16_114)">
<path d="M27.9961 14.0838C27.9961 6.30426 21.7284 -0.00195312 13.9978 -0.00195312C6.26381 -0.000203344 -0.00390625 6.30426 -0.00390625 14.0855C-0.00390625 21.1144 5.11595 26.9412 11.8071 27.998V18.1555H8.25506V14.0855H11.8106V10.9797C11.8106 7.45037 13.9016 5.50111 17.0985 5.50111C18.6313 5.50111 20.2323 5.77583 20.2323 5.77583V9.24039H18.4668C16.7293 9.24039 16.1868 10.327 16.1868 11.4416V14.0838H20.0678L19.4484 18.1538H16.1851V27.9963C22.8762 26.9394 27.9961 21.1127 27.9961 14.0838Z" fill="white"/>
</g>
<defs>
<clipPath id="clip0_16_114">
<rect width="31" height="31" fill="white"/>
</clipPath>
</defs>
</svg>
