<svg width="40" height="41" viewBox="0 0 40 41" fill="none" xmlns="http://www.w3.org/2000/svg">
<path d="M36.0001 40.625C37.0609 40.625 38.0783 40.1567 38.8284 39.3233C39.5786 38.4898 40 37.3593 40 36.1806V25.3272C40 24.1485 39.5786 23.018 38.8284 22.1845C38.0783 21.351 37.0609 20.8828 36.0001 20.8828H30.4482C30.4482 19.3228 30.5322 17.7583 30.6962 16.1983C30.9442 14.545 31.3602 13.0739 31.9361 11.7894C32.5161 10.5006 33.2601 9.49167 34.1721 8.75389C35.0801 7.92722 36.2361 7.51389 37.644 7.51389V0.625C35.3281 0.625 33.3041 1.17611 31.5641 2.27833C29.8393 3.36938 28.3564 4.8759 27.2242 6.68722C26.0879 8.68418 25.2504 10.8725 24.7443 13.1672C24.2342 15.6995 23.9846 18.2879 24.0003 20.8828V36.1806C24.0003 37.3593 24.4217 38.4898 25.1718 39.3233C25.922 40.1567 26.9394 40.625 28.0002 40.625H36.0001ZM12.0005 40.625C13.0613 40.625 14.0787 40.1567 14.8289 39.3233C15.579 38.4898 16.0004 37.3593 16.0004 36.1806V25.3272C16.0004 24.1485 15.579 23.018 14.8289 22.1845C14.0787 21.351 13.0613 20.8828 12.0005 20.8828H6.44858C6.44858 19.3228 6.53258 17.7583 6.69658 16.1983C6.94457 14.545 7.36057 13.0739 7.93656 11.7894C8.51655 10.5006 9.26053 9.49167 10.1725 8.75389C11.0805 7.92722 12.2365 7.51389 13.6445 7.51389V0.625C11.3285 0.625 9.30453 1.17611 7.56456 2.27833C5.83974 3.36938 4.35679 4.8759 3.22464 6.68722C2.08836 8.68418 1.25085 10.8725 0.744681 13.1672C0.234633 15.6995 -0.014962 18.2879 0.000693101 20.8828V36.1806C0.000693101 37.3593 0.422113 38.4898 1.17225 39.3233C1.92238 40.1567 2.93978 40.625 4.00062 40.625H12.0005Z" fill="#FF6542"/>
</svg>
